<svg width="24" height="25" viewBox="0 0 24 25" fill="none" xmlns="http://www.w3.org/2000/svg">
<path fill-rule="evenodd" clip-rule="evenodd" d="M0 3.5C0 1.84315 1.34315 0.5 3 0.5H21C22.6569 0.5 24 1.84315 24 3.5V21.5C24 23.1569 22.6569 24.5 21 24.5H20.9633C20.6171 19.8043 17.8565 15.9595 14.2105 14.8342C15.2891 14.1178 16 12.8919 16 11.5C16 9.29086 14.2091 7.5 12 7.5C9.79086 7.5 8 9.29086 8 11.5C8 12.8919 8.71094 14.1178 9.78951 14.8342C6.14346 15.9595 3.3829 19.8043 3.03669 24.5H3C1.34315 24.5 0 23.1569 0 21.5V3.5Z" fill="#005689"/>
</svg>
