<svg width="24" height="25" viewBox="0 0 24 25" fill="none" xmlns="http://www.w3.org/2000/svg">
<path fill-rule="evenodd" clip-rule="evenodd" d="M3 0.5C1.34315 0.5 0 1.84315 0 3.5V6.5H3C3.55228 6.5 4 6.94772 4 7.5V8.5C4 9.05229 3.55228 9.5 3 9.5H0V11.5H3C3.55228 11.5 4 11.9477 4 12.5V13.5C4 14.0523 3.55228 14.5 3 14.5H0V16.5H3C3.55228 16.5 4 16.9477 4 17.5V18.5C4 19.0523 3.55228 19.5 3 19.5H0V21.5C0 23.1569 1.34315 24.5 3 24.5H21C22.6569 24.5 24 23.1569 24 21.5V3.5C24 1.84315 22.6569 0.5 21 0.5H3ZM15.2284 9.50857C15.708 8.9768 16 8.2725 16 7.5C16 5.84315 14.6569 4.5 13 4.5C11.3431 4.5 10 5.84315 10 7.5C10 8.2725 10.292 8.9768 10.7716 9.50857C9.22144 9.62527 8 10.92 8 12.5V18.5C8 19.0523 8.44772 19.5 9 19.5H17C17.5523 19.5 18 19.0523 18 18.5V12.5C18 10.92 16.7786 9.62527 15.2284 9.50857Z" fill="#005689"/>
</svg>
