<svg width="850" height="133" viewBox="0 0 850 133" fill="none" xmlns="http://www.w3.org/2000/svg">
<path d="M34.5938 33.7578H12.0938V57H0.375V0.125H37.4062V9.61719H12.0938V24.3047H34.5938V33.7578ZM55.9219 36.9609V57H44.2031V0.125H66.3906C70.6615 0.125 74.4115 0.90625 77.6406 2.46875C80.8958 4.03125 83.3958 6.25781 85.1406 9.14844C86.8854 12.013 87.7578 15.2812 87.7578 18.9531C87.7578 24.526 85.8438 28.9271 82.0156 32.1562C78.2135 35.3594 72.9401 36.9609 66.1953 36.9609H55.9219ZM55.9219 27.4688H66.3906C69.4896 27.4688 71.8464 26.7396 73.4609 25.2812C75.1016 23.8229 75.9219 21.7396 75.9219 19.0312C75.9219 16.2448 75.1016 13.9922 73.4609 12.2734C71.8203 10.5547 69.5547 9.66927 66.6641 9.61719H55.9219V27.4688ZM138.656 9.61719H121.234V57H109.516V9.61719H92.3281V0.125H138.656V9.61719ZM197.172 32.3516H174.672V47.5859H201.078V57H162.953V0.125H201V9.61719H174.672V23.1719H197.172V32.3516ZM222.016 43.2109L229.867 14.7344H241.664L227.406 57H216.625L202.367 14.7344H214.164L222.016 43.2109ZM265.57 57.7812C259.372 57.7812 254.32 55.8802 250.414 52.0781C246.534 48.276 244.594 43.2109 244.594 36.8828V35.7891C244.594 31.5443 245.414 27.7552 247.055 24.4219C248.695 21.0625 251.013 18.4844 254.008 16.6875C257.029 14.8646 260.466 13.9531 264.32 13.9531C270.102 13.9531 274.646 15.776 277.953 19.4219C281.286 23.0677 282.953 28.237 282.953 34.9297V39.5391H256.039C256.404 42.2995 257.497 44.513 259.32 46.1797C261.169 47.8464 263.5 48.6797 266.312 48.6797C270.661 48.6797 274.06 47.1042 276.508 43.9531L282.055 50.1641C280.362 52.5599 278.07 54.4349 275.18 55.7891C272.289 57.1172 269.086 57.7812 265.57 57.7812ZM264.281 23.0938C262.042 23.0938 260.219 23.849 258.812 25.3594C257.432 26.8698 256.547 29.0312 256.156 31.8438H271.859V30.9453C271.807 28.4453 271.13 26.5182 269.828 25.1641C268.526 23.7839 266.677 23.0938 264.281 23.0938ZM299.789 14.7344L300.141 19.6172C303.161 15.8411 307.211 13.9531 312.289 13.9531C316.768 13.9531 320.102 15.2682 322.289 17.8984C324.477 20.5286 325.596 24.4609 325.648 29.6953V57H314.359V29.9688C314.359 27.5729 313.839 25.8411 312.797 24.7734C311.755 23.6797 310.023 23.1328 307.602 23.1328C304.424 23.1328 302.042 24.487 300.453 27.1953V57H289.164V14.7344H299.789ZM347.758 4.34375V14.7344H354.984V23.0156H347.758V44.1094C347.758 45.6719 348.057 46.7917 348.656 47.4688C349.255 48.1458 350.401 48.4844 352.094 48.4844C353.344 48.4844 354.451 48.3932 355.414 48.2109V56.7656C353.201 57.4427 350.922 57.7812 348.578 57.7812C340.661 57.7812 336.625 53.7839 336.469 45.7891V23.0156H330.297V14.7344H336.469V4.34375H347.758ZM397.25 0.125L411.859 41.375L426.391 0.125H441.781V57H430.023V41.4531L431.195 14.6172L415.844 57H407.797L392.484 14.6562L393.656 41.4531V57H381.938V0.125H397.25ZM475.766 57C475.245 55.9844 474.867 54.7214 474.633 53.2109C471.898 56.2578 468.344 57.7812 463.969 57.7812C459.828 57.7812 456.391 56.5833 453.656 54.1875C450.948 51.7917 449.594 48.7708 449.594 45.125C449.594 40.6458 451.247 37.2083 454.555 34.8125C457.888 32.4167 462.693 31.2057 468.969 31.1797H474.164V28.7578C474.164 26.8047 473.656 25.2422 472.641 24.0703C471.651 22.8984 470.076 22.3125 467.914 22.3125C466.013 22.3125 464.516 22.7682 463.422 23.6797C462.354 24.5911 461.82 25.8411 461.82 27.4297H450.531C450.531 24.9818 451.286 22.7161 452.797 20.6328C454.307 18.5495 456.443 16.9219 459.203 15.75C461.964 14.5521 465.062 13.9531 468.5 13.9531C473.708 13.9531 477.836 15.2682 480.883 17.8984C483.956 20.5026 485.492 24.1745 485.492 28.9141V47.2344C485.518 51.2448 486.078 54.2786 487.172 56.3359V57H475.766ZM466.43 49.1484C468.096 49.1484 469.633 48.7839 471.039 48.0547C472.445 47.2995 473.487 46.2969 474.164 45.0469V37.7812H469.945C464.294 37.7812 461.286 39.7344 460.922 43.6406L460.883 44.3047C460.883 45.7109 461.378 46.8698 462.367 47.7812C463.357 48.6927 464.711 49.1484 466.43 49.1484ZM504.555 14.7344L504.906 19.6172C507.927 15.8411 511.977 13.9531 517.055 13.9531C521.534 13.9531 524.867 15.2682 527.055 17.8984C529.242 20.5286 530.362 24.4609 530.414 29.6953V57H519.125V29.9688C519.125 27.5729 518.604 25.8411 517.562 24.7734C516.521 23.6797 514.789 23.1328 512.367 23.1328C509.19 23.1328 506.807 24.487 505.219 27.1953V57H493.93V14.7344H504.555ZM563.5 57C562.979 55.9844 562.602 54.7214 562.367 53.2109C559.633 56.2578 556.078 57.7812 551.703 57.7812C547.562 57.7812 544.125 56.5833 541.391 54.1875C538.682 51.7917 537.328 48.7708 537.328 45.125C537.328 40.6458 538.982 37.2083 542.289 34.8125C545.622 32.4167 550.427 31.2057 556.703 31.1797H561.898V28.7578C561.898 26.8047 561.391 25.2422 560.375 24.0703C559.385 22.8984 557.81 22.3125 555.648 22.3125C553.747 22.3125 552.25 22.7682 551.156 23.6797C550.089 24.5911 549.555 25.8411 549.555 27.4297H538.266C538.266 24.9818 539.021 22.7161 540.531 20.6328C542.042 18.5495 544.177 16.9219 546.938 15.75C549.698 14.5521 552.797 13.9531 556.234 13.9531C561.443 13.9531 565.57 15.2682 568.617 17.8984C571.69 20.5026 573.227 24.1745 573.227 28.9141V47.2344C573.253 51.2448 573.812 54.2786 574.906 56.3359V57H563.5ZM554.164 49.1484C555.831 49.1484 557.367 48.7839 558.773 48.0547C560.18 47.2995 561.221 46.2969 561.898 45.0469V37.7812H557.68C552.029 37.7812 549.021 39.7344 548.656 43.6406L548.617 44.3047C548.617 45.7109 549.112 46.8698 550.102 47.7812C551.091 48.6927 552.445 49.1484 554.164 49.1484ZM580.258 35.5547C580.258 29.0703 581.794 23.849 584.867 19.8906C587.966 15.9323 592.133 13.9531 597.367 13.9531C602.003 13.9531 605.609 15.5417 608.188 18.7188L608.656 14.7344H618.891V55.5938C618.891 59.2917 618.044 62.5078 616.352 65.2422C614.685 67.9766 612.328 70.0599 609.281 71.4922C606.234 72.9245 602.667 73.6406 598.578 73.6406C595.479 73.6406 592.458 73.0156 589.516 71.7656C586.573 70.5417 584.346 68.9531 582.836 67L587.836 60.125C590.648 63.276 594.06 64.8516 598.07 64.8516C601.065 64.8516 603.396 64.0443 605.062 62.4297C606.729 60.8411 607.562 58.5755 607.562 55.6328V53.3672C604.958 56.3099 601.534 57.7812 597.289 57.7812C592.211 57.7812 588.096 55.8021 584.945 51.8438C581.82 47.8594 580.258 42.5859 580.258 36.0234V35.5547ZM591.547 36.375C591.547 40.2031 592.315 43.2109 593.852 45.3984C595.388 47.5599 597.497 48.6406 600.18 48.6406C603.617 48.6406 606.078 47.3516 607.562 44.7734V27C606.052 24.4219 603.617 23.1328 600.258 23.1328C597.549 23.1328 595.414 24.2396 593.852 26.4531C592.315 28.6667 591.547 31.974 591.547 36.375ZM647.055 57.7812C640.857 57.7812 635.805 55.8802 631.898 52.0781C628.018 48.276 626.078 43.2109 626.078 36.8828V35.7891C626.078 31.5443 626.898 27.7552 628.539 24.4219C630.18 21.0625 632.497 18.4844 635.492 16.6875C638.513 14.8646 641.951 13.9531 645.805 13.9531C651.586 13.9531 656.13 15.776 659.438 19.4219C662.771 23.0677 664.438 28.237 664.438 34.9297V39.5391H637.523C637.888 42.2995 638.982 44.513 640.805 46.1797C642.654 47.8464 644.984 48.6797 647.797 48.6797C652.146 48.6797 655.544 47.1042 657.992 43.9531L663.539 50.1641C661.846 52.5599 659.555 54.4349 656.664 55.7891C653.773 57.1172 650.57 57.7812 647.055 57.7812ZM645.766 23.0938C643.526 23.0938 641.703 23.849 640.297 25.3594C638.917 26.8698 638.031 29.0312 637.641 31.8438H653.344V30.9453C653.292 28.4453 652.615 26.5182 651.312 25.1641C650.01 23.7839 648.161 23.0938 645.766 23.0938ZM681.469 14.7344L681.82 19.4609C684.815 15.7891 688.865 13.9531 693.969 13.9531C699.411 13.9531 703.148 16.1016 705.18 20.3984C708.148 16.1016 712.38 13.9531 717.875 13.9531C722.458 13.9531 725.87 15.2943 728.109 17.9766C730.349 20.6328 731.469 24.6432 731.469 30.0078V57H720.141V30.0469C720.141 27.651 719.672 25.9062 718.734 24.8125C717.797 23.6927 716.143 23.1328 713.773 23.1328C710.388 23.1328 708.044 24.7474 706.742 27.9766L706.781 57H695.492V30.0859C695.492 27.638 695.01 25.8672 694.047 24.7734C693.083 23.6797 691.443 23.1328 689.125 23.1328C685.922 23.1328 683.604 24.4609 682.172 27.1172V57H670.883V14.7344H681.469ZM759.633 57.7812C753.435 57.7812 748.383 55.8802 744.477 52.0781C740.596 48.276 738.656 43.2109 738.656 36.8828V35.7891C738.656 31.5443 739.477 27.7552 741.117 24.4219C742.758 21.0625 745.076 18.4844 748.07 16.6875C751.091 14.8646 754.529 13.9531 758.383 13.9531C764.164 13.9531 768.708 15.776 772.016 19.4219C775.349 23.0677 777.016 28.237 777.016 34.9297V39.5391H750.102C750.466 42.2995 751.56 44.513 753.383 46.1797C755.232 47.8464 757.562 48.6797 760.375 48.6797C764.724 48.6797 768.122 47.1042 770.57 43.9531L776.117 50.1641C774.424 52.5599 772.133 54.4349 769.242 55.7891C766.352 57.1172 763.148 57.7812 759.633 57.7812ZM758.344 23.0938C756.104 23.0938 754.281 23.849 752.875 25.3594C751.495 26.8698 750.609 29.0312 750.219 31.8438H765.922V30.9453C765.87 28.4453 765.193 26.5182 763.891 25.1641C762.589 23.7839 760.74 23.0938 758.344 23.0938ZM793.852 14.7344L794.203 19.6172C797.224 15.8411 801.273 13.9531 806.352 13.9531C810.831 13.9531 814.164 15.2682 816.352 17.8984C818.539 20.5286 819.659 24.4609 819.711 29.6953V57H808.422V29.9688C808.422 27.5729 807.901 25.8411 806.859 24.7734C805.818 23.6797 804.086 23.1328 801.664 23.1328C798.487 23.1328 796.104 24.487 794.516 27.1953V57H783.227V14.7344H793.852ZM841.82 4.34375V14.7344H849.047V23.0156H841.82V44.1094C841.82 45.6719 842.12 46.7917 842.719 47.4688C843.318 48.1458 844.464 48.4844 846.156 48.4844C847.406 48.4844 848.513 48.3932 849.477 48.2109V56.7656C847.263 57.4427 844.984 57.7812 842.641 57.7812C834.724 57.7812 830.688 53.7839 830.531 45.7891V23.0156H824.359V14.7344H830.531V4.34375H841.82ZM523.852 113.211L529.32 86.4531H535.448L527.245 122H521.337L514.574 96.0479L507.665 122H501.732L493.529 86.4531H499.657L505.175 113.162L511.962 86.4531H517.138L523.852 113.211ZM550.243 122.488C546.483 122.488 543.432 121.308 541.088 118.948C538.76 116.572 537.597 113.414 537.597 109.476V108.743C537.597 106.106 538.101 103.755 539.11 101.688C540.136 99.6042 541.568 97.9847 543.407 96.8291C545.246 95.6735 547.297 95.0957 549.56 95.0957C553.157 95.0957 555.932 96.2432 557.885 98.5381C559.854 100.833 560.839 104.08 560.839 108.279V110.672H543.578C543.757 112.853 544.481 114.578 545.751 115.848C547.037 117.117 548.648 117.752 550.585 117.752C553.303 117.752 555.517 116.653 557.226 114.456L560.424 117.508C559.366 119.087 557.95 120.315 556.176 121.194C554.418 122.057 552.44 122.488 550.243 122.488ZM549.535 99.8564C547.908 99.8564 546.589 100.426 545.58 101.565C544.587 102.705 543.952 104.292 543.676 106.326H554.979V105.887C554.849 103.901 554.32 102.404 553.393 101.395C552.465 100.369 551.179 99.8564 549.535 99.8564ZM588.646 109.061C588.646 113.162 587.727 116.425 585.888 118.851C584.065 121.276 581.55 122.488 578.344 122.488C575.251 122.488 572.842 121.373 571.117 119.144L570.824 122H565.453V84.5H571.386V98.123C573.095 96.1048 575.398 95.0957 578.295 95.0957C581.518 95.0957 584.049 96.292 585.888 98.6846C587.727 101.077 588.646 104.422 588.646 108.719V109.061ZM582.714 108.548C582.714 105.683 582.209 103.535 581.2 102.103C580.191 100.67 578.726 99.9541 576.806 99.9541C574.234 99.9541 572.427 101.077 571.386 103.323V114.212C572.444 116.507 574.267 117.654 576.854 117.654C578.71 117.654 580.142 116.963 581.151 115.579C582.16 114.196 582.681 112.104 582.714 109.305V108.548ZM621.874 122C621.614 121.495 621.386 120.674 621.19 119.534C619.302 121.504 616.991 122.488 614.257 122.488C611.604 122.488 609.439 121.731 607.763 120.218C606.086 118.704 605.248 116.832 605.248 114.603C605.248 111.787 606.29 109.63 608.373 108.133C610.473 106.619 613.467 105.862 617.357 105.862H620.995V104.129C620.995 102.762 620.613 101.671 619.848 100.857C619.083 100.027 617.919 99.6123 616.356 99.6123C615.006 99.6123 613.899 99.9541 613.036 100.638C612.174 101.305 611.742 102.16 611.742 103.201H605.81C605.81 101.753 606.29 100.402 607.25 99.1484C608.21 97.8789 609.512 96.8861 611.156 96.1699C612.816 95.4538 614.664 95.0957 616.698 95.0957C619.791 95.0957 622.257 95.877 624.096 97.4395C625.935 98.9857 626.879 101.167 626.928 103.982V115.896C626.928 118.273 627.261 120.169 627.929 121.585V122H621.874ZM615.355 117.728C616.527 117.728 617.626 117.443 618.651 116.873C619.693 116.303 620.474 115.538 620.995 114.578V109.598H617.797C615.6 109.598 613.948 109.98 612.841 110.745C611.734 111.51 611.181 112.592 611.181 113.992C611.181 115.132 611.555 116.043 612.304 116.727C613.069 117.394 614.086 117.728 615.355 117.728ZM656.273 109.061C656.273 113.146 655.346 116.409 653.49 118.851C651.635 121.276 649.145 122.488 646.02 122.488C643.122 122.488 640.803 121.536 639.062 119.632V132.156H633.129V95.584H638.598L638.842 98.2695C640.583 96.1536 642.951 95.0957 645.946 95.0957C649.169 95.0957 651.692 96.3001 653.515 98.709C655.354 101.102 656.273 104.43 656.273 108.694V109.061ZM650.365 108.548C650.365 105.911 649.836 103.82 648.778 102.273C647.737 100.727 646.239 99.9541 644.286 99.9541C641.861 99.9541 640.119 100.955 639.062 102.957V114.676C640.136 116.727 641.894 117.752 644.335 117.752C646.223 117.752 647.696 116.995 648.754 115.481C649.828 113.951 650.365 111.64 650.365 108.548ZM684.447 109.061C684.447 113.146 683.52 116.409 681.664 118.851C679.809 121.276 677.318 122.488 674.193 122.488C671.296 122.488 668.977 121.536 667.235 119.632V132.156H661.303V95.584H666.771L667.016 98.2695C668.757 96.1536 671.125 95.0957 674.12 95.0957C677.343 95.0957 679.866 96.3001 681.688 98.709C683.528 101.102 684.447 104.43 684.447 108.694V109.061ZM678.539 108.548C678.539 105.911 678.01 103.82 676.952 102.273C675.91 100.727 674.413 99.9541 672.46 99.9541C670.035 99.9541 668.293 100.955 667.235 102.957V114.676C668.31 116.727 670.067 117.752 672.509 117.752C674.397 117.752 675.87 116.995 676.928 115.481C678.002 113.951 678.539 111.64 678.539 108.548ZM695.8 122H689.867V84.5H695.8V122ZM708.593 122H702.66V95.584H708.593V122ZM702.294 88.7236C702.294 87.8122 702.579 87.0553 703.148 86.4531C703.734 85.8509 704.564 85.5498 705.639 85.5498C706.713 85.5498 707.543 85.8509 708.129 86.4531C708.715 87.0553 709.008 87.8122 709.008 88.7236C709.008 89.6188 708.715 90.3675 708.129 90.9697C707.543 91.5557 706.713 91.8486 705.639 91.8486C704.564 91.8486 703.734 91.5557 703.148 90.9697C702.579 90.3675 702.294 89.6188 702.294 88.7236ZM725.927 117.752C727.408 117.752 728.637 117.321 729.613 116.458C730.59 115.595 731.111 114.529 731.176 113.26H736.767C736.701 114.904 736.189 116.442 735.229 117.874C734.268 119.29 732.966 120.413 731.322 121.243C729.678 122.073 727.904 122.488 726 122.488C722.305 122.488 719.376 121.292 717.211 118.899C715.046 116.507 713.964 113.203 713.964 108.987V108.377C713.964 104.357 715.038 101.142 717.187 98.7334C719.335 96.3083 722.265 95.0957 725.976 95.0957C729.117 95.0957 731.672 96.0153 733.642 97.8545C735.627 99.6774 736.669 102.078 736.767 105.057H731.176C731.111 103.543 730.59 102.298 729.613 101.321C728.653 100.345 727.424 99.8564 725.927 99.8564C724.006 99.8564 722.525 100.556 721.483 101.956C720.442 103.34 719.913 105.447 719.896 108.279V109.231C719.896 112.096 720.409 114.236 721.435 115.652C722.476 117.052 723.974 117.752 725.927 117.752ZM757.03 122C756.77 121.495 756.542 120.674 756.347 119.534C754.459 121.504 752.147 122.488 749.413 122.488C746.76 122.488 744.595 121.731 742.919 120.218C741.243 118.704 740.404 116.832 740.404 114.603C740.404 111.787 741.446 109.63 743.529 108.133C745.629 106.619 748.624 105.862 752.514 105.862H756.151V104.129C756.151 102.762 755.769 101.671 755.004 100.857C754.239 100.027 753.075 99.6123 751.513 99.6123C750.162 99.6123 749.055 99.9541 748.192 100.638C747.33 101.305 746.898 102.16 746.898 103.201H740.966C740.966 101.753 741.446 100.402 742.406 99.1484C743.367 97.8789 744.669 96.8861 746.312 96.1699C747.973 95.4538 749.82 95.0957 751.854 95.0957C754.947 95.0957 757.413 95.877 759.252 97.4395C761.091 98.9857 762.035 101.167 762.084 103.982V115.896C762.084 118.273 762.418 120.169 763.085 121.585V122H757.03ZM750.512 117.728C751.684 117.728 752.782 117.443 753.808 116.873C754.849 116.303 755.631 115.538 756.151 114.578V109.598H752.953C750.756 109.598 749.104 109.98 747.997 110.745C746.89 111.51 746.337 112.592 746.337 113.992C746.337 115.132 746.711 116.043 747.46 116.727C748.225 117.394 749.242 117.728 750.512 117.728ZM775.731 89.1631V95.584H780.395V99.9785H775.731V114.725C775.731 115.734 775.927 116.466 776.317 116.922C776.724 117.361 777.44 117.581 778.466 117.581C779.149 117.581 779.841 117.5 780.541 117.337V121.927C779.19 122.301 777.888 122.488 776.635 122.488C772.077 122.488 769.799 119.974 769.799 114.944V99.9785H765.453V95.584H769.799V89.1631H775.731ZM791.259 122H785.326V95.584H791.259V122ZM784.96 88.7236C784.96 87.8122 785.245 87.0553 785.814 86.4531C786.4 85.8509 787.23 85.5498 788.305 85.5498C789.379 85.5498 790.209 85.8509 790.795 86.4531C791.381 87.0553 791.674 87.8122 791.674 88.7236C791.674 89.6188 791.381 90.3675 790.795 90.9697C790.209 91.5557 789.379 91.8486 788.305 91.8486C787.23 91.8486 786.4 91.5557 785.814 90.9697C785.245 90.3675 784.96 89.6188 784.96 88.7236ZM796.63 108.548C796.63 105.96 797.143 103.632 798.168 101.565C799.193 99.4821 800.634 97.887 802.489 96.7803C804.345 95.6572 806.477 95.0957 808.886 95.0957C812.45 95.0957 815.339 96.2432 817.553 98.5381C819.783 100.833 820.987 103.877 821.166 107.669L821.19 109.061C821.19 111.665 820.686 113.992 819.677 116.043C818.684 118.094 817.252 119.681 815.38 120.804C813.524 121.927 811.376 122.488 808.935 122.488C805.207 122.488 802.221 121.251 799.975 118.777C797.745 116.287 796.63 112.975 796.63 108.841V108.548ZM802.562 109.061C802.562 111.779 803.124 113.911 804.247 115.457C805.37 116.987 806.933 117.752 808.935 117.752C810.937 117.752 812.491 116.971 813.598 115.408C814.721 113.846 815.282 111.559 815.282 108.548C815.282 105.879 814.704 103.763 813.549 102.2C812.41 100.638 810.855 99.8564 808.886 99.8564C806.949 99.8564 805.411 100.63 804.271 102.176C803.132 103.706 802.562 106.001 802.562 109.061ZM831.713 95.584L831.884 98.6357C833.837 96.2757 836.4 95.0957 839.574 95.0957C845.076 95.0957 847.875 98.2451 847.973 104.544V122H842.04V104.886C842.04 103.209 841.674 101.972 840.941 101.175C840.225 100.361 839.045 99.9541 837.401 99.9541C835.009 99.9541 833.227 101.036 832.055 103.201V122H826.122V95.584H831.713Z" fill="#FD4601"/>
</svg>
