<svg width="124" height="124" viewBox="0 0 124 124" fill="none" xmlns="http://www.w3.org/2000/svg">
<path d="M62 2C46.087 2 30.8258 8.32141 19.5736 19.5736C8.32141 30.8258 2 46.087 2 62C2 77.913 8.32141 93.1742 19.5736 104.426C30.8258 115.679 46.087 122 62 122C77.913 122 93.1742 115.679 104.426 104.426C115.679 93.1742 122 77.913 122 62C122 46.087 115.679 30.8258 104.426 19.5736C93.1742 8.32141 77.913 2 62 2V2Z" fill="#039BE5" stroke="white" stroke-width="3"/>
<path d="M70.1221 77.9032H85.6495L88.0874 62.1295H70.119V53.5085C70.119 46.9558 72.26 41.1453 78.3895 41.1453H88.239V27.38C86.5084 27.1463 82.8484 26.6348 75.9327 26.6348C61.4916 26.6348 53.0253 34.2611 53.0253 51.6358V62.1295H38.18V77.9032H53.0253V121.258C55.9653 121.7 58.9432 122 62 122C64.7632 122 67.46 121.747 70.1221 121.387V77.9032Z" fill="white" stroke="white" stroke-width="3"/>
</svg>
