<svg width="127" height="125" viewBox="0 0 127 125" fill="none" xmlns="http://www.w3.org/2000/svg">
<path d="M63.41 123.5C97.5909 123.5 125.32 96.4241 125.32 63C125.32 29.5759 97.5909 2.5 63.41 2.5C29.2291 2.5 1.5 29.5759 1.5 63C1.5 96.4241 29.2291 123.5 63.41 123.5Z" fill="white" stroke="black"/>
<path d="M94.5432 25.3008L94.3964 25.065H94.1187C86.8218 25.065 81.6936 29.2709 78.6465 32.7767C74.218 31.7376 69.1482 31.2062 63.4125 31.2062C57.974 31.2062 52.9368 31.7969 48.4198 33.0129C45.3981 29.4724 40.1801 25.065 32.7062 25.065H32.4286L32.2818 25.3007C27.8818 32.3655 29.5728 39.9531 31.2221 44.2872C27.9335 48.9881 26.065 54.9794 26.065 62.4125C26.065 71.1768 28.0939 77.9896 32.213 82.9852C36.1755 87.7909 42.0218 90.8537 49.6885 92.3907C47.9754 94.2182 46.6174 96.361 45.714 98.76H38.8475C36.7198 98.76 35.2889 98.29 34.109 97.4679C32.9069 96.6304 31.9296 95.4056 30.7437 93.8038C28.344 90.5626 25.7134 88.3208 22.5295 87.3881L22.4881 87.376L22.4452 87.3711C21.5096 87.2652 20.6102 87.5794 20.1755 88.2371C19.9509 88.577 19.8682 88.9908 19.9791 89.4184C20.0873 89.8358 20.3673 90.2221 20.7849 90.5597L20.7958 90.5686L20.8072 90.5767C23.109 92.2335 24.3526 94.4227 25.2641 96.6977C25.6267 97.6027 25.9326 98.5098 26.2343 99.4046C26.3138 99.6403 26.393 99.875 26.4728 100.109C26.8523 101.219 27.2463 102.302 27.7489 103.268L27.7493 103.269C29.5938 106.796 33.3978 108.972 37.6499 108.972H44.4887V120.316C20.0949 112.382 2.5 89.4615 2.5 62.4125C2.5 28.7582 29.7582 1.5 63.4125 1.5C97.0667 1.5 124.325 28.7582 124.325 62.4125C124.325 89.4615 106.73 112.382 82.3362 120.316V105.401C82.3362 100.348 80.3426 95.7946 77.139 92.3902C84.8044 90.853 90.6499 87.7904 94.612 82.9852C98.731 77.9896 100.76 71.1768 100.76 62.4125C100.76 54.9212 99.2508 48.9205 96.2536 44.2084C97.5812 38.9323 98.3503 31.417 94.5432 25.3008Z" fill="black" stroke="black"/>
<ellipse cx="63.5" cy="62.5" rx="61.5" ry="60.5" stroke="white" stroke-width="3"/>
</svg>
