<svg width="124" height="124" viewBox="0 0 124 124" fill="none" xmlns="http://www.w3.org/2000/svg">
<path d="M62 2C46.087 2 30.8258 8.32141 19.5736 19.5736C8.32141 30.8258 2 46.087 2 62C2 77.913 8.32141 93.1742 19.5736 104.426C30.8258 115.679 46.087 122 62 122C77.913 122 93.1742 115.679 104.426 104.426C115.679 93.1742 122 77.913 122 62C122 46.087 115.679 30.8258 104.426 19.5736C93.1742 8.32141 77.913 2 62 2V2Z" fill="#0288D1" stroke="white" stroke-width="3"/>
<path d="M32 47H44V92H32V47ZM37.964 41H37.898C34.316 41 32 38.33 32 34.997C32 31.592 34.388 29 38.033 29C41.684 29 43.931 31.592 44 34.997C44 38.33 41.684 41 37.964 41ZM95 63.5C95 54.386 87.614 47 78.5 47C72.914 47 67.985 49.784 65 54.032V47H53V92H65V68C65 63.029 69.029 59 74 59C78.971 59 83 63.029 83 68V92H95C95 92 95 64.763 95 63.5Z" fill="white"/>
</svg>
