<svg width="432" height="133" viewBox="0 0 432 133" fill="none" xmlns="http://www.w3.org/2000/svg">
<path d="M47.8906 9.61719H30.4688V57H18.75V9.61719H1.5625V0.125H47.8906V9.61719ZM43.9844 35.4766C43.9844 31.2839 44.7917 27.5469 46.4062 24.2656C48.0208 20.9844 50.3385 18.4453 53.3594 16.6484C56.4062 14.8516 59.9349 13.9531 63.9453 13.9531C69.6484 13.9531 74.2969 15.6979 77.8906 19.1875C81.5104 22.6771 83.5286 27.4167 83.9453 33.4062L84.0234 36.2969C84.0234 42.7812 82.2135 47.9896 78.5938 51.9219C74.974 55.8281 70.1172 57.7812 64.0234 57.7812C57.9297 57.7812 53.0599 55.8281 49.4141 51.9219C45.7943 48.0156 43.9844 42.7031 43.9844 35.9844V35.4766ZM55.2734 36.2969C55.2734 40.3073 56.0286 43.3802 57.5391 45.5156C59.0495 47.625 61.2109 48.6797 64.0234 48.6797C66.7578 48.6797 68.8932 47.638 70.4297 45.5547C71.9661 43.4453 72.7344 40.0859 72.7344 35.4766C72.7344 31.5443 71.9661 28.4974 70.4297 26.3359C68.8932 24.1745 66.7318 23.0938 63.9453 23.0938C61.1849 23.0938 59.0495 24.1745 57.5391 26.3359C56.0286 28.4714 55.2734 31.7917 55.2734 36.2969ZM101.562 14.7344L101.914 19.4609C104.909 15.7891 108.958 13.9531 114.062 13.9531C119.505 13.9531 123.242 16.1016 125.273 20.3984C128.242 16.1016 132.474 13.9531 137.969 13.9531C142.552 13.9531 145.964 15.2943 148.203 17.9766C150.443 20.6328 151.562 24.6432 151.562 30.0078V57H140.234V30.0469C140.234 27.651 139.766 25.9062 138.828 24.8125C137.891 23.6927 136.237 23.1328 133.867 23.1328C130.482 23.1328 128.138 24.7474 126.836 27.9766L126.875 57H115.586V30.0859C115.586 27.638 115.104 25.8672 114.141 24.7734C113.177 23.6797 111.536 23.1328 109.219 23.1328C106.016 23.1328 103.698 24.4609 102.266 27.1172V57H90.9766V14.7344H101.562ZM23.5107 113.724H9.74121L6.86035 122H0.439453L13.8672 86.4531H19.4092L32.8613 122H26.416L23.5107 113.724ZM11.4746 108.743H21.7773L16.626 93.9971L11.4746 108.743ZM40.6738 95.584L40.8447 98.6357C42.7979 96.2757 45.3613 95.0957 48.5352 95.0957C54.0365 95.0957 56.8359 98.2451 56.9336 104.544V122H51.001V104.886C51.001 103.209 50.6348 101.972 49.9023 101.175C49.1862 100.361 48.0062 99.9541 46.3623 99.9541C43.9697 99.9541 42.1875 101.036 41.0156 103.201V122H35.083V95.584H40.6738ZM61.8896 108.597C61.8896 104.528 62.8337 101.264 64.7217 98.8066C66.6097 96.3327 69.1406 95.0957 72.3145 95.0957C75.1139 95.0957 77.3763 96.0723 79.1016 98.0254V84.5H85.0342V122H79.6631L79.3701 119.266C77.596 121.414 75.2279 122.488 72.2656 122.488C69.1732 122.488 66.6667 121.243 64.7461 118.753C62.8418 116.263 61.8896 112.877 61.8896 108.597ZM67.8223 109.109C67.8223 111.795 68.335 113.895 69.3604 115.408C70.402 116.906 71.875 117.654 73.7793 117.654C76.2044 117.654 77.9785 116.572 79.1016 114.407V103.128C78.0111 101.012 76.2533 99.9541 73.8281 99.9541C71.9076 99.9541 70.4264 100.719 69.3848 102.249C68.3431 103.763 67.8223 106.049 67.8223 109.109ZM105.054 101.004C104.272 100.874 103.467 100.809 102.637 100.809C99.9186 100.809 98.0876 101.85 97.1436 103.934V122H91.2109V95.584H96.875L97.0215 98.5381C98.4538 96.2432 100.439 95.0957 102.979 95.0957C103.825 95.0957 104.525 95.2096 105.078 95.4375L105.054 101.004ZM106.812 108.548C106.812 105.96 107.324 103.632 108.35 101.565C109.375 99.4821 110.815 97.887 112.671 96.7803C114.526 95.6572 116.659 95.0957 119.067 95.0957C122.632 95.0957 125.521 96.2432 127.734 98.5381C129.964 100.833 131.169 103.877 131.348 107.669L131.372 109.061C131.372 111.665 130.868 113.992 129.858 116.043C128.866 118.094 127.433 119.681 125.562 120.804C123.706 121.927 121.558 122.488 119.116 122.488C115.389 122.488 112.402 121.251 110.156 118.777C107.926 116.287 106.812 112.975 106.812 108.841V108.548ZM112.744 109.061C112.744 111.779 113.306 113.911 114.429 115.457C115.552 116.987 117.114 117.752 119.116 117.752C121.118 117.752 122.673 116.971 123.779 115.408C124.902 113.846 125.464 111.559 125.464 108.548C125.464 105.879 124.886 103.763 123.73 102.2C122.591 100.638 121.037 99.8564 119.067 99.8564C117.131 99.8564 115.592 100.63 114.453 102.176C113.314 103.706 112.744 106.001 112.744 109.061ZM142.7 122H136.768V95.584H142.7V122ZM136.401 88.7236C136.401 87.8122 136.686 87.0553 137.256 86.4531C137.842 85.8509 138.672 85.5498 139.746 85.5498C140.82 85.5498 141.65 85.8509 142.236 86.4531C142.822 87.0553 143.115 87.8122 143.115 88.7236C143.115 89.6188 142.822 90.3675 142.236 90.9697C141.65 91.5557 140.82 91.8486 139.746 91.8486C138.672 91.8486 137.842 91.5557 137.256 90.9697C136.686 90.3675 136.401 89.6188 136.401 88.7236ZM148.071 108.597C148.071 104.528 149.015 101.264 150.903 98.8066C152.791 96.3327 155.322 95.0957 158.496 95.0957C161.296 95.0957 163.558 96.0723 165.283 98.0254V84.5H171.216V122H165.845L165.552 119.266C163.778 121.414 161.41 122.488 158.447 122.488C155.355 122.488 152.848 121.243 150.928 118.753C149.023 116.263 148.071 112.877 148.071 108.597ZM154.004 109.109C154.004 111.795 154.517 113.895 155.542 115.408C156.584 116.906 158.057 117.654 159.961 117.654C162.386 117.654 164.16 116.572 165.283 114.407V103.128C164.193 101.012 162.435 99.9541 160.01 99.9541C158.089 99.9541 156.608 100.719 155.566 102.249C154.525 103.763 154.004 106.049 154.004 109.109ZM205.64 122C205.379 121.495 205.151 120.674 204.956 119.534C203.068 121.504 200.757 122.488 198.022 122.488C195.369 122.488 193.205 121.731 191.528 120.218C189.852 118.704 189.014 116.832 189.014 114.603C189.014 111.787 190.055 109.63 192.139 108.133C194.238 106.619 197.233 105.862 201.123 105.862H204.761V104.129C204.761 102.762 204.378 101.671 203.613 100.857C202.848 100.027 201.685 99.6123 200.122 99.6123C198.771 99.6123 197.664 99.9541 196.802 100.638C195.939 101.305 195.508 102.16 195.508 103.201H189.575C189.575 101.753 190.055 100.402 191.016 99.1484C191.976 97.8789 193.278 96.8861 194.922 96.1699C196.582 95.4538 198.429 95.0957 200.464 95.0957C203.556 95.0957 206.022 95.877 207.861 97.4395C209.701 98.9857 210.645 101.167 210.693 103.982V115.896C210.693 118.273 211.027 120.169 211.694 121.585V122H205.64ZM199.121 117.728C200.293 117.728 201.392 117.443 202.417 116.873C203.459 116.303 204.24 115.538 204.761 114.578V109.598H201.562C199.365 109.598 197.713 109.98 196.606 110.745C195.5 111.51 194.946 112.592 194.946 113.992C194.946 115.132 195.321 116.043 196.069 116.727C196.834 117.394 197.852 117.728 199.121 117.728ZM240.039 109.061C240.039 113.146 239.111 116.409 237.256 118.851C235.4 121.276 232.91 122.488 229.785 122.488C226.888 122.488 224.569 121.536 222.827 119.632V132.156H216.895V95.584H222.363L222.607 98.2695C224.349 96.1536 226.717 95.0957 229.712 95.0957C232.935 95.0957 235.457 96.3001 237.28 98.709C239.119 101.102 240.039 104.43 240.039 108.694V109.061ZM234.131 108.548C234.131 105.911 233.602 103.82 232.544 102.273C231.502 100.727 230.005 99.9541 228.052 99.9541C225.627 99.9541 223.885 100.955 222.827 102.957V114.676C223.901 116.727 225.659 117.752 228.101 117.752C229.989 117.752 231.462 116.995 232.52 115.481C233.594 113.951 234.131 111.64 234.131 108.548ZM268.213 109.061C268.213 113.146 267.285 116.409 265.43 118.851C263.574 121.276 261.084 122.488 257.959 122.488C255.062 122.488 252.743 121.536 251.001 119.632V132.156H245.068V95.584H250.537L250.781 98.2695C252.523 96.1536 254.891 95.0957 257.886 95.0957C261.108 95.0957 263.631 96.3001 265.454 98.709C267.293 101.102 268.213 104.43 268.213 108.694V109.061ZM262.305 108.548C262.305 105.911 261.776 103.82 260.718 102.273C259.676 100.727 258.179 99.9541 256.226 99.9541C253.8 99.9541 252.059 100.955 251.001 102.957V114.676C252.075 116.727 253.833 117.752 256.274 117.752C258.162 117.752 259.635 116.995 260.693 115.481C261.768 113.951 262.305 111.64 262.305 108.548ZM279.565 122H273.633V84.5H279.565V122ZM292.358 122H286.426V95.584H292.358V122ZM286.06 88.7236C286.06 87.8122 286.344 87.0553 286.914 86.4531C287.5 85.8509 288.33 85.5498 289.404 85.5498C290.479 85.5498 291.309 85.8509 291.895 86.4531C292.48 87.0553 292.773 87.8122 292.773 88.7236C292.773 89.6188 292.48 90.3675 291.895 90.9697C291.309 91.5557 290.479 91.8486 289.404 91.8486C288.33 91.8486 287.5 91.5557 286.914 90.9697C286.344 90.3675 286.06 89.6188 286.06 88.7236ZM309.692 117.752C311.174 117.752 312.402 117.321 313.379 116.458C314.355 115.595 314.876 114.529 314.941 113.26H320.532C320.467 114.904 319.954 116.442 318.994 117.874C318.034 119.29 316.732 120.413 315.088 121.243C313.444 122.073 311.67 122.488 309.766 122.488C306.071 122.488 303.141 121.292 300.977 118.899C298.812 116.507 297.729 113.203 297.729 108.987V108.377C297.729 104.357 298.804 101.142 300.952 98.7334C303.101 96.3083 306.03 95.0957 309.741 95.0957C312.882 95.0957 315.438 96.0153 317.407 97.8545C319.393 99.6774 320.435 102.078 320.532 105.057H314.941C314.876 103.543 314.355 102.298 313.379 101.321C312.419 100.345 311.19 99.8564 309.692 99.8564C307.772 99.8564 306.291 100.556 305.249 101.956C304.207 103.34 303.678 105.447 303.662 108.279V109.231C303.662 112.096 304.175 114.236 305.2 115.652C306.242 117.052 307.739 117.752 309.692 117.752ZM340.796 122C340.535 121.495 340.308 120.674 340.112 119.534C338.224 121.504 335.913 122.488 333.179 122.488C330.526 122.488 328.361 121.731 326.685 120.218C325.008 118.704 324.17 116.832 324.17 114.603C324.17 111.787 325.212 109.63 327.295 108.133C329.395 106.619 332.389 105.862 336.279 105.862H339.917V104.129C339.917 102.762 339.535 101.671 338.77 100.857C338.005 100.027 336.841 99.6123 335.278 99.6123C333.927 99.6123 332.821 99.9541 331.958 100.638C331.095 101.305 330.664 102.16 330.664 103.201H324.731C324.731 101.753 325.212 100.402 326.172 99.1484C327.132 97.8789 328.434 96.8861 330.078 96.1699C331.738 95.4538 333.586 95.0957 335.62 95.0957C338.713 95.0957 341.178 95.877 343.018 97.4395C344.857 98.9857 345.801 101.167 345.85 103.982V115.896C345.85 118.273 346.183 120.169 346.851 121.585V122H340.796ZM334.277 117.728C335.449 117.728 336.548 117.443 337.573 116.873C338.615 116.303 339.396 115.538 339.917 114.578V109.598H336.719C334.521 109.598 332.869 109.98 331.763 110.745C330.656 111.51 330.103 112.592 330.103 113.992C330.103 115.132 330.477 116.043 331.226 116.727C331.991 117.394 333.008 117.728 334.277 117.728ZM359.497 89.1631V95.584H364.16V99.9785H359.497V114.725C359.497 115.734 359.692 116.466 360.083 116.922C360.49 117.361 361.206 117.581 362.231 117.581C362.915 117.581 363.607 117.5 364.307 117.337V121.927C362.956 122.301 361.654 122.488 360.4 122.488C355.843 122.488 353.564 119.974 353.564 114.944V99.9785H349.219V95.584H353.564V89.1631H359.497ZM375.024 122H369.092V95.584H375.024V122ZM368.726 88.7236C368.726 87.8122 369.01 87.0553 369.58 86.4531C370.166 85.8509 370.996 85.5498 372.07 85.5498C373.145 85.5498 373.975 85.8509 374.561 86.4531C375.146 87.0553 375.439 87.8122 375.439 88.7236C375.439 89.6188 375.146 90.3675 374.561 90.9697C373.975 91.5557 373.145 91.8486 372.07 91.8486C370.996 91.8486 370.166 91.5557 369.58 90.9697C369.01 90.3675 368.726 89.6188 368.726 88.7236ZM380.396 108.548C380.396 105.96 380.908 103.632 381.934 101.565C382.959 99.4821 384.399 97.887 386.255 96.7803C388.11 95.6572 390.243 95.0957 392.651 95.0957C396.216 95.0957 399.105 96.2432 401.318 98.5381C403.548 100.833 404.753 103.877 404.932 107.669L404.956 109.061C404.956 111.665 404.451 113.992 403.442 116.043C402.45 118.094 401.017 119.681 399.146 120.804C397.29 121.927 395.142 122.488 392.7 122.488C388.973 122.488 385.986 121.251 383.74 118.777C381.51 116.287 380.396 112.975 380.396 108.841V108.548ZM386.328 109.061C386.328 111.779 386.89 113.911 388.013 115.457C389.136 116.987 390.698 117.752 392.7 117.752C394.702 117.752 396.257 116.971 397.363 115.408C398.486 113.846 399.048 111.559 399.048 108.548C399.048 105.879 398.47 103.763 397.314 102.2C396.175 100.638 394.621 99.8564 392.651 99.8564C390.715 99.8564 389.176 100.63 388.037 102.176C386.898 103.706 386.328 106.001 386.328 109.061ZM415.479 95.584L415.649 98.6357C417.603 96.2757 420.166 95.0957 423.34 95.0957C428.841 95.0957 431.641 98.2451 431.738 104.544V122H425.806V104.886C425.806 103.209 425.439 101.972 424.707 101.175C423.991 100.361 422.811 99.9541 421.167 99.9541C418.774 99.9541 416.992 101.036 415.82 103.201V122H409.888V95.584H415.479Z" fill="url(#paint0_linear_11_36)"/>
<defs>
<linearGradient id="paint0_linear_11_36" x1="3.42849e-06" y1="122" x2="305" y2="-60.5" gradientUnits="userSpaceOnUse">
<stop stop-color="#00AEE3"/>
<stop offset="1" stop-color="#14D600" stop-opacity="0.95"/>
</linearGradient>
</defs>
</svg>
